<svg width="41" height="41" viewBox="0 0 41 41" fill="none" xmlns="http://www.w3.org/2000/svg">
<path d="M20.5 40.8203C31.3984 40.8203 40.4219 31.7773 40.4219 20.8984C40.4219 10 31.3789 0.976562 20.4805 0.976562C9.60156 0.976562 0.578125 10 0.578125 20.8984C0.578125 31.7773 9.62109 40.8203 20.5 40.8203ZM15.1289 29.5898C11.6523 29.5898 9.34766 26.2695 9.34766 20.8984C9.34766 15.5273 11.6523 12.207 15.1289 12.207C18.6055 12.207 20.8906 15.5273 20.8906 20.8984C20.8906 26.2695 18.6055 29.5898 15.1289 29.5898ZM29.1133 29.3359C28.3711 29.3359 27.8633 28.8281 27.8633 28.0469V15.5469H27.7656L25.6172 17.1289C25.1484 17.5 24.9531 17.5195 24.6211 17.5195C24.0352 17.5195 23.4688 16.9922 23.4688 16.3086C23.4688 15.7812 23.7227 15.4102 24.1523 15.1172L27.2188 13.0273C27.9219 12.5391 28.3125 12.3438 28.9766 12.3438C29.8359 12.3438 30.4023 12.9492 30.4023 13.7891V28.0469C30.4023 28.8281 29.9141 29.3359 29.1133 29.3359ZM15.1289 27.1289C17.0625 27.1289 18.2344 24.7656 18.2344 20.8984C18.2344 17.0312 17.043 14.668 15.1289 14.668C13.2148 14.668 12.0234 17.0312 12.0234 20.8984C12.0234 24.7656 13.2148 27.1289 15.1289 27.1289Z" fill="#A8A8A8"/>
</svg>
