<svg width="41" height="41" viewBox="0 0 41 41" fill="none" xmlns="http://www.w3.org/2000/svg">
<path d="M20.418 40.8203C31.3164 40.8203 40.3398 31.7773 40.3398 20.8984C40.3398 10 31.2969 0.976562 20.3984 0.976562C9.51953 0.976562 0.496094 10 0.496094 20.8984C0.496094 31.7773 9.53906 40.8203 20.418 40.8203ZM13.8359 29.5898C10.3594 29.5898 8.07422 26.2695 8.07422 20.8984C8.07422 15.5273 10.3594 12.207 13.8359 12.207C17.293 12.207 19.5977 15.5273 19.5977 20.8984C19.5977 26.2695 17.293 29.5898 13.8359 29.5898ZM23.1914 29.1211C22.4688 29.1211 22.0195 28.6523 22.0195 27.9297C22.0195 27.5195 22.1367 27.168 22.4688 26.8359L27.7617 20.5859C28.7188 19.4727 29.7734 18.3398 29.7734 17.0312C29.7734 15.5469 28.7383 14.5508 27.1172 14.5508C25.6719 14.5508 24.6562 15.2734 24.1484 16.7969C23.8945 17.4023 23.582 17.7344 22.9961 17.7344C22.293 17.7344 21.8633 17.2461 21.8633 16.5234C21.8633 16.2891 21.9023 16.0547 21.9609 15.8008C22.4883 13.75 24.6172 12.207 27.0195 12.207C30.1836 12.207 32.2148 14.0039 32.2148 16.8164C32.2148 18.8281 31.1211 20.2734 29.6172 22.0117L25.6914 26.582V26.7383H31.5312C32.1758 26.7383 32.6641 27.1484 32.6641 27.9102C32.6641 28.6328 32.1758 29.1211 31.5312 29.1211H23.1914ZM13.8359 27.1289C15.7695 27.1289 16.9414 24.7656 16.9414 20.8984C16.9414 17.0312 15.75 14.668 13.8359 14.668C11.9219 14.668 10.7305 17.0312 10.7305 20.8984C10.7305 24.7656 11.9219 27.1289 13.8359 27.1289Z" fill="#A8A8A8"/>
</svg>
