<svg width="41" height="41" viewBox="0 0 41 41" fill="none" xmlns="http://www.w3.org/2000/svg">
<path d="M20.418 40.8008C31.3164 40.8008 40.3398 31.7578 40.3398 20.8789C40.3398 9.98047 31.2969 0.957031 20.3984 0.957031C9.51953 0.957031 0.496094 9.98047 0.496094 20.8789C0.496094 31.7578 9.53906 40.8008 20.418 40.8008ZM13.6211 29.5703C10.1641 29.5703 7.85938 26.25 7.85938 20.8789C7.85938 15.4883 10.1641 12.1875 13.6211 12.1875C17.0977 12.1875 19.3828 15.4883 19.3828 20.8789C19.3828 26.25 17.0977 29.5703 13.6211 29.5703ZM27.1758 29.5703C24.4414 29.5703 22.3125 27.8906 21.7656 26.0156C21.707 25.7812 21.668 25.5664 21.668 25.293C21.668 24.5898 22.1562 24.082 22.8398 24.082C23.4062 24.082 23.7383 24.3945 23.9922 25.0195C24.5391 26.4453 25.6133 27.2266 27.1953 27.2266C29.1289 27.2266 30.4766 26.0547 30.4766 24.4922C30.4766 22.8516 29.2461 21.7773 27.3516 21.7773H26.1602C25.4961 21.7773 25.0664 21.2695 25.0664 20.625C25.0664 19.8828 25.5156 19.4141 26.1602 19.4141H27.2344C28.8555 19.4141 29.9688 18.3594 29.9688 16.8945C29.9688 15.4883 28.8555 14.5312 27.2734 14.5312C25.6914 14.5312 24.7344 15.293 24.2852 16.7188C24.0898 17.3633 23.7578 17.6758 23.1523 17.6758C22.4688 17.6758 22 17.168 22 16.4453C22 16.1914 22 15.9766 22.0586 15.7227C22.5859 13.75 24.5977 12.1875 27.332 12.1875C30.3203 12.1875 32.4688 13.9844 32.4688 16.5625C32.4688 18.457 31.1602 20.1367 29.4805 20.4102V20.5273C31.5117 20.7422 33.0156 22.4414 33.0156 24.6094C33.0156 27.5 30.6133 29.5703 27.1758 29.5703ZM13.6211 27.1094C15.5547 27.1094 16.7461 24.7266 16.7461 20.8789C16.7461 17.0117 15.5352 14.6484 13.6211 14.6484C11.7266 14.6484 10.5156 17.0117 10.5156 20.8789C10.5156 24.7266 11.7266 27.1094 13.6211 27.1094Z" fill="#A8A8A8"/>
</svg>
